<mxfile host="app.diagrams.net" agent="Mozilla/5.0 (Windows NT 10.0; Win64; x64) AppleWebKit/537.36 (KHTML, like Gecko) Chrome/136.0.0.0 Safari/537.36" version="27.0.6">
  <diagram name="Page-1" id="UXf6ROreadPoHm0ih9TI">
    <mxGraphModel dx="827" dy="732" grid="1" gridSize="10" guides="1" tooltips="1" connect="1" arrows="1" fold="1" page="1" pageScale="1" pageWidth="827" pageHeight="1169" math="0" shadow="0">
      <root>
        <mxCell id="0" />
        <mxCell id="1" parent="0" />
        <mxCell id="IhbMUD1_a28VK6bJ-pFF-89" value="Gradio UI" style="whiteSpace=wrap;strokeWidth=2;verticalAlign=top;fontSize=16;align=left;fillColor=#f5f5f5;strokeColor=#666666;fontColor=#333333;" vertex="1" parent="1">
          <mxGeometry x="500" y="710" width="320" height="490" as="geometry" />
        </mxCell>
        <mxCell id="IhbMUD1_a28VK6bJ-pFF-90" value="Python Backend" style="whiteSpace=wrap;strokeWidth=2;verticalAlign=top;fontSize=16;align=left;fillColor=#cce5ff;strokeColor=#36393d;" vertex="1" parent="1">
          <mxGeometry x="857" y="710" width="343" height="400" as="geometry" />
        </mxCell>
        <mxCell id="IhbMUD1_a28VK6bJ-pFF-94" value="План урока" style="whiteSpace=wrap;strokeWidth=2;fillColor=#d5e8d4;strokeColor=#82b366;" vertex="1" parent="1">
          <mxGeometry x="539" y="950" width="220.5" height="60" as="geometry" />
        </mxCell>
        <mxCell id="IhbMUD1_a28VK6bJ-pFF-101" value="Google Sheets" style="whiteSpace=wrap;strokeWidth=1;" vertex="1" parent="1">
          <mxGeometry x="846.5" y="1133" width="103" height="33" as="geometry" />
        </mxCell>
        <mxCell id="IhbMUD1_a28VK6bJ-pFF-157" style="edgeStyle=orthogonalEdgeStyle;rounded=0;orthogonalLoop=1;jettySize=auto;html=1;entryX=0.5;entryY=0;entryDx=0;entryDy=0;strokeWidth=2;" edge="1" parent="1" source="IhbMUD1_a28VK6bJ-pFF-102" target="IhbMUD1_a28VK6bJ-pFF-153">
          <mxGeometry relative="1" as="geometry" />
        </mxCell>
        <mxCell id="IhbMUD1_a28VK6bJ-pFF-102" value="Инструкции" style="whiteSpace=wrap;strokeWidth=1;" vertex="1" parent="1">
          <mxGeometry x="987" y="740" width="111" height="30" as="geometry" />
        </mxCell>
        <mxCell id="IhbMUD1_a28VK6bJ-pFF-105" value="bytes" style="curved=0;startArrow=none;endArrow=block;exitX=1;exitY=0.5;entryX=0;entryY=0.5;rounded=0;entryDx=0;entryDy=0;entryPerimeter=0;labelBackgroundColor=#FFFFFF;fillColor=#cce5ff;strokeColor=#36393d;labelBorderColor=none;exitDx=0;exitDy=0;" edge="1" parent="1" source="IhbMUD1_a28VK6bJ-pFF-148" target="IhbMUD1_a28VK6bJ-pFF-132">
          <mxGeometry relative="1" as="geometry">
            <Array as="points" />
            <mxPoint x="778" y="775" as="sourcePoint" />
          </mxGeometry>
        </mxCell>
        <mxCell id="IhbMUD1_a28VK6bJ-pFF-106" value="image_URL" style="curved=0;startArrow=none;endArrow=block;rounded=0;exitX=1;exitY=0.5;exitDx=0;exitDy=0;exitPerimeter=0;fillColor=#cce5ff;strokeColor=#36393d;strokeWidth=2;" edge="1" parent="1" source="IhbMUD1_a28VK6bJ-pFF-132" target="IhbMUD1_a28VK6bJ-pFF-153">
          <mxGeometry relative="1" as="geometry">
            <Array as="points">
              <mxPoint x="950" y="780" />
            </Array>
            <mxPoint x="1030" y="830" as="targetPoint" />
          </mxGeometry>
        </mxCell>
        <mxCell id="IhbMUD1_a28VK6bJ-pFF-107" value="{...}" style="entryX=0;entryY=0.5;entryDx=0;entryDy=0;fontSize=12;strokeWidth=2;" edge="1" parent="1" source="IhbMUD1_a28VK6bJ-pFF-131" target="IhbMUD1_a28VK6bJ-pFF-153">
          <mxGeometry relative="1" as="geometry">
            <Array as="points" />
          </mxGeometry>
        </mxCell>
        <mxCell id="IhbMUD1_a28VK6bJ-pFF-112" value="output: html" style="curved=0;startArrow=none;endArrow=block;exitX=0;exitY=0.5;rounded=0;exitDx=0;exitDy=0;fillColor=#cce5ff;strokeColor=#36393d;entryX=1;entryY=0.5;entryDx=0;entryDy=0;strokeWidth=2;" edge="1" parent="1" source="IhbMUD1_a28VK6bJ-pFF-133" target="IhbMUD1_a28VK6bJ-pFF-94">
          <mxGeometry relative="1" as="geometry">
            <Array as="points" />
            <mxPoint x="760" y="940" as="targetPoint" />
          </mxGeometry>
        </mxCell>
        <mxCell id="IhbMUD1_a28VK6bJ-pFF-113" value="requests.post" style="curved=0;startArrow=none;endArrow=block;exitX=1;exitY=0.5;rounded=0;exitDx=0;exitDy=0;fillColor=#cce5ff;strokeColor=#36393d;" edge="1" parent="1" source="IhbMUD1_a28VK6bJ-pFF-147" target="IhbMUD1_a28VK6bJ-pFF-101">
          <mxGeometry x="-0.0034" relative="1" as="geometry">
            <Array as="points" />
            <mxPoint as="offset" />
          </mxGeometry>
        </mxCell>
        <mxCell id="IhbMUD1_a28VK6bJ-pFF-131" value="Параметры: методика, CEFR, age..." style="rounded=1;whiteSpace=wrap;html=1;strokeWidth=1;fillColor=#eeeeee;strokeColor=#36393d;" vertex="1" parent="1">
          <mxGeometry x="539" y="851.25" width="221" height="57.5" as="geometry" />
        </mxCell>
        <mxCell id="IhbMUD1_a28VK6bJ-pFF-132" value="upload" style="strokeWidth=1;html=1;shape=mxgraph.flowchart.database;whiteSpace=wrap;fontSize=10;fontStyle=0" vertex="1" parent="1">
          <mxGeometry x="840" y="755.5" width="37" height="43" as="geometry" />
        </mxCell>
        <mxCell id="IhbMUD1_a28VK6bJ-pFF-133" value="LLM" style="shape=hexagon;perimeter=hexagonPerimeter2;whiteSpace=wrap;html=1;fixedSize=1;" vertex="1" parent="1">
          <mxGeometry x="980" y="962.5" width="120" height="35" as="geometry" />
        </mxCell>
        <mxCell id="IhbMUD1_a28VK6bJ-pFF-137" value="скачать docx" style="rounded=1;whiteSpace=wrap;html=1;verticalAlign=middle;labelBackgroundColor=none;labelPosition=center;verticalLabelPosition=middle;align=center;strokeWidth=1;fillColor=#d5e8d4;strokeColor=#82b366;" vertex="1" parent="1">
          <mxGeometry x="629" y="1060" width="120.5" height="40" as="geometry" />
        </mxCell>
        <mxCell id="IhbMUD1_a28VK6bJ-pFF-140" value="PostgreSQL" style="strokeWidth=1;html=1;shape=mxgraph.flowchart.database;whiteSpace=wrap;fillColor=#cce5ff;strokeColor=#36393d;fontSize=10;dashed=1;dashPattern=8 8;" vertex="1" parent="1">
          <mxGeometry x="1120" y="868.75" width="60" height="40" as="geometry" />
        </mxCell>
        <mxCell id="IhbMUD1_a28VK6bJ-pFF-142" style="edgeStyle=orthogonalEdgeStyle;rounded=0;orthogonalLoop=1;jettySize=auto;html=1;entryX=0.5;entryY=1;entryDx=0;entryDy=0;entryPerimeter=0;dashed=1;dashPattern=8 8;curved=1;endSize=6;shadow=0;flowAnimation=0;fillColor=#cce5ff;strokeColor=#36393d;" edge="1" parent="1" source="IhbMUD1_a28VK6bJ-pFF-133" target="IhbMUD1_a28VK6bJ-pFF-140">
          <mxGeometry relative="1" as="geometry" />
        </mxCell>
        <mxCell id="IhbMUD1_a28VK6bJ-pFF-145" value="html2docx" style="curved=0;startArrow=none;endArrow=block;exitX=0.5;exitY=1;rounded=0;exitDx=0;exitDy=0;entryX=1;entryY=0.5;entryDx=0;entryDy=0;fillColor=#cce5ff;strokeColor=#36393d;" edge="1" parent="1" source="IhbMUD1_a28VK6bJ-pFF-133" target="IhbMUD1_a28VK6bJ-pFF-137">
          <mxGeometry relative="1" as="geometry">
            <Array as="points">
              <mxPoint x="1040" y="1080" />
            </Array>
            <mxPoint x="1043" y="1050" as="sourcePoint" />
            <mxPoint x="771.38" y="1185" as="targetPoint" />
          </mxGeometry>
        </mxCell>
        <mxCell id="IhbMUD1_a28VK6bJ-pFF-147" value="Форма обратной связи" style="rounded=1;whiteSpace=wrap;html=1;verticalAlign=middle;labelBackgroundColor=none;labelPosition=center;verticalLabelPosition=middle;align=center;strokeWidth=1;" vertex="1" parent="1">
          <mxGeometry x="610" y="1133" width="139.5" height="36.5" as="geometry" />
        </mxCell>
        <mxCell id="IhbMUD1_a28VK6bJ-pFF-148" value="Фото учебного материала" style="rounded=1;whiteSpace=wrap;html=1;strokeWidth=1;fillColor=#eeeeee;strokeColor=#36393d;" vertex="1" parent="1">
          <mxGeometry x="540.75" y="747" width="219.25" height="60" as="geometry" />
        </mxCell>
        <mxCell id="IhbMUD1_a28VK6bJ-pFF-153" value="&lt;pre style=&quot;font-family: Menlo, &amp;quot;Roboto Mono&amp;quot;, &amp;quot;Courier New&amp;quot;, Courier, monospace, Inter, sans-serif; overflow: auto; padding: 9.144px 13.716px; text-wrap-mode: wrap; word-break: break-all; color: rgb(255, 255, 255); font-size: 12.573px; text-align: start; margin-top: 0px !important; margin-bottom: 0px !important;&quot;&gt;&lt;span style=&quot;color: rgb(145, 208, 118);&quot; class=&quot;token text string&quot;&gt;•&lt;/span&gt;&lt;/pre&gt;" style="rhombus;whiteSpace=wrap;html=1;verticalAlign=middle;align=center;" vertex="1" parent="1">
          <mxGeometry x="1030" y="867.5" width="25" height="25" as="geometry" />
        </mxCell>
        <mxCell id="IhbMUD1_a28VK6bJ-pFF-156" value="Responses API" style="curved=0;startArrow=none;endArrow=block;exitX=0.5;exitY=1;entryX=0.5;entryY=0;rounded=0;entryDx=0;entryDy=0;labelBackgroundColor=#FFFFFF;fillColor=#cce5ff;strokeColor=#36393d;labelBorderColor=none;exitDx=0;exitDy=0;strokeWidth=2;" edge="1" parent="1" source="IhbMUD1_a28VK6bJ-pFF-153" target="IhbMUD1_a28VK6bJ-pFF-133">
          <mxGeometry relative="1" as="geometry">
            <Array as="points" />
            <mxPoint x="1080" y="1020" as="sourcePoint" />
            <mxPoint x="1160" y="1028" as="targetPoint" />
          </mxGeometry>
        </mxCell>
      </root>
    </mxGraphModel>
  </diagram>
</mxfile>
